<svg width="158" height="28" viewBox="0 0 158 28" fill="none" xmlns="http://www.w3.org/2000/svg">
<path d="M0.25 0H5.5735L10.1004 19.11L14.6626 0H19.9861L12.8355 27.608H7.35978C4.96357 18.4072 2.59364 9.20453 0.25 0Z" fill="white"/>
<path d="M25.8889 27.6085H20.946V7.53251H25.8889V27.6085ZM23.4419 6.22771C22.6487 6.22771 21.888 5.90321 21.3271 5.3256C20.7663 4.74798 20.4512 3.96457 20.4512 3.14771C20.4512 2.32713 20.7677 1.54016 21.3311 0.959922C21.8945 0.379685 22.6587 0.0537109 23.4555 0.0537109C24.2523 0.0537109 25.0165 0.379685 25.5799 0.959922C26.1433 1.54016 26.4598 2.32713 26.4598 3.14771C26.4598 3.55336 26.382 3.95502 26.2309 4.32962C26.0797 4.70421 25.8582 5.04437 25.5791 5.33056C25.2999 5.61675 24.9686 5.84333 24.6042 5.99729C24.2398 6.15124 23.8494 6.22955 23.4555 6.22771" fill="white"/>
<path d="M33.1382 14.5294H39.261V13.471C39.261 10.5338 38.081 9.55104 36.2186 9.55104C34.4677 9.55104 33.1382 10.5674 33.1382 12.911V14.5294ZM44.2039 20.5606V20.7202C44.2039 24.7522 41.2376 28.0002 36.2186 28.0002C31.1235 28.0002 28.1953 24.671 28.1953 19.3846V14.0198C28.1953 8.65504 31.1235 5.33984 36.2186 5.33984C41.2376 5.33984 44.2039 8.43384 44.2039 13.8378V18.133H33.1382V20.5214C33.1258 21.3765 33.4431 22.2018 34.0205 22.8164C34.5979 23.431 35.3884 23.7848 36.2186 23.8002C37.8907 23.8002 39.261 22.823 39.261 21.0226V20.5606H44.2039Z" fill="white"/>
<path d="M45.3457 5.992C48.1189 5.992 49.0705 4.1328 49.0705 0H52.393V5.6392H56.3081V10.1416H52.393V23.2232H56.3842V27.804C55.7916 27.8798 55.1951 27.9191 54.5979 27.9216C48.8557 27.9216 47.4501 24.8416 47.4501 19.4628V10.1416H45.3946C45.3946 8.7416 45.3593 7.4004 45.3593 5.992" fill="white"/>
<path d="M73.5992 19.0707C73.5992 24.6399 70.8586 27.9999 65.6112 27.9999C60.5161 27.9999 57.5879 24.6707 57.5879 19.3843V14.0643C57.5879 8.69948 60.5161 5.33108 65.6112 5.33108C70.8966 5.31988 73.5992 8.65468 73.5992 14.3723H68.6536C68.6536 11.2923 67.5117 9.98468 65.6112 9.98468C63.7869 9.98468 62.5307 11.0039 62.5307 13.7843V18.9531C62.5307 21.8511 63.5585 23.3799 65.6112 23.3799C67.3975 23.3799 68.6536 22.0471 68.6536 19.0707H73.5992Z" fill="white"/>
<path d="M80.2515 14.5294H86.377V13.471C86.377 10.5338 85.197 9.55104 83.3346 9.55104C81.5837 9.55104 80.2542 10.5674 80.2542 12.911L80.2515 14.5294ZM91.3172 20.5606V20.7202C91.3172 24.7522 88.3509 28.0002 83.3319 28.0002C78.2368 28.0002 75.3086 24.671 75.3086 19.3846V14.0198C75.3086 8.65504 78.2368 5.33984 83.3319 5.33984C88.3509 5.33984 91.3172 8.43384 91.3172 13.8378V18.133H80.2515V20.5214C80.2391 21.3765 80.5564 22.2018 81.1338 22.8164C81.7112 23.431 82.5016 23.7848 83.3319 23.8002C85.0176 23.8002 86.377 22.8314 86.377 21.031V20.5606H91.3172Z" fill="white"/>
<path d="M109.646 14.5294H115.769V13.471C115.769 10.5338 114.589 9.55104 112.726 9.55104C110.978 9.55104 109.646 10.5674 109.646 12.911V14.5294ZM120.712 20.5606V20.7202C120.712 24.7522 117.745 28.0002 112.726 28.0002C107.631 28.0002 104.703 24.671 104.703 19.3846V14.0198C104.703 8.65504 107.631 5.33984 112.726 5.33984C117.745 5.33984 120.712 8.43384 120.712 13.8378V18.133H109.646V20.5214C109.634 21.3763 109.952 22.2011 110.529 22.8156C111.106 23.43 111.896 23.784 112.726 23.8002C114.399 23.8002 115.769 22.823 115.769 21.0226V20.5606H120.712Z" fill="white"/>
<path d="M133.261 10.4157H127.938V27.6077H122.992V5.59975H127.633V8.57614C128.248 6.15974 130.828 5.03975 133.261 5.36455V10.4157Z" fill="white"/>
<path d="M145.086 19.4236V13.7452C145.086 11.0824 143.795 9.90918 142.044 9.90918C140.22 9.90918 139.004 11.1216 139.004 13.8292V19.4292C139.004 22.1704 140.22 23.3856 142.044 23.3856C143.868 23.3856 145.086 22.12 145.086 19.4236ZM134.023 19.8156V13.44C134.023 7.76158 136.606 5.33398 140.334 5.33398C143.452 5.33398 145.086 7.36958 145.391 8.07518V5.59998H150.032V27.608H145.391V25.1804C145.086 25.9252 143.452 27.9608 140.334 27.9608C136.527 27.9608 134.023 25.4408 134.023 19.8156Z" fill="white"/>
<path d="M154.747 27.922C154.353 27.9239 153.962 27.8456 153.598 27.6916C153.233 27.5377 152.902 27.3111 152.623 27.0249C152.344 26.7387 152.122 26.3986 151.971 26.024C151.82 25.6494 151.742 25.2477 151.742 24.842C151.742 24.0215 152.059 23.2345 152.622 22.6543C153.186 22.074 153.95 21.748 154.747 21.748C155.543 21.748 156.307 22.074 156.871 22.6543C157.434 23.2345 157.751 24.0215 157.751 24.842C157.751 25.6589 157.436 26.4423 156.875 27.0199C156.314 27.5975 155.553 27.922 154.76 27.922" fill="white"/>
<path d="M92.457 5.992C95.233 5.992 96.1846 4.1328 96.1846 0H99.4934V5.6392H103.409V10.1416H99.4934V23.2232H103.485V27.804C102.892 27.8798 102.296 27.9191 101.698 27.9216C95.9562 27.9216 94.5505 24.8416 94.5505 19.4628V10.1416H92.4951C92.4951 8.7416 92.457 7.4004 92.457 5.992Z" fill="white"/>
</svg>
