<svg width="40" height="40" viewBox="0 0 40 40" fill="none" xmlns="http://www.w3.org/2000/svg">
<path d="M35.4321 26.106C34.832 27.5288 34.0256 28.8652 33.0361 30.0765C33.4005 30.2819 33.8156 30.3922 34.2395 30.3963C34.6633 30.4003 35.0807 30.2979 35.4493 30.0995C35.8179 29.9011 36.1247 29.6137 36.3385 29.2665C36.5522 28.9193 36.6654 28.5246 36.6665 28.1225C36.6685 27.7125 36.5552 27.3095 36.3382 26.955C36.1212 26.6005 35.8084 26.3074 35.4321 26.106Z" fill="white"/>
<path d="M22.1045 30.2951H17.9121C16.0754 23.4496 14.2587 16.6042 12.4619 9.75877H16.5412L20.0216 23.9732L23.5053 9.75877H27.5846L22.1045 30.2951ZM32.0566 28.2288C32.0566 27.6157 32.2983 27.0272 32.7293 26.5912C33.1604 26.1552 33.746 25.9067 34.3591 25.8997C34.7498 25.899 35.1339 25.9999 35.4738 26.1925C37.0415 22.275 37.065 17.9087 35.5395 13.9746C34.014 10.0405 31.0531 6.83147 27.2542 4.99496C23.4553 3.15845 19.1013 2.83119 15.0706 4.07923C11.0398 5.32726 7.63253 8.05769 5.53612 11.7196C3.43972 15.3814 2.81028 19.7022 3.77482 23.81C4.73936 27.9178 7.22607 31.5068 10.7332 33.8529C14.2403 36.1991 18.5068 37.1276 22.6718 36.4513C26.8367 35.7749 30.5901 33.544 33.1746 30.2086C32.8322 30.0051 32.5489 29.7157 32.3528 29.369C32.1567 29.0223 32.0546 28.6304 32.0566 28.2321" fill="white"/>
</svg>
